<svg width="128" height="128" viewBox="0 0 128 128" fill="none" xmlns="http://www.w3.org/2000/svg">
<path d="M83.3938 4.04762C84.4085 3.91489 84.579 3.87837 84.9365 5.04356C86.2193 9.22512 87.4595 12.3392 90.8718 15.2937C91.5257 15.8597 92.6353 16.3786 93.3113 16.8865C94.1583 17.523 94.6219 17.8714 95.5567 18.4244C93.1224 21.1527 87.8705 22.6896 84.9127 25.3792C81.0463 28.7909 78.0797 31.6417 75.5648 36.1521C65.6089 54.0086 74.5544 73.3944 91.0852 83.2014C93.5688 84.6747 96.2497 85.9196 98.85 87.1691C101.672 88.525 105.108 89.0886 107.119 91.6489C110.665 95.9571 108.576 103.554 104.602 106.839C99.7544 110.82 95.338 104.095 92.4527 100.881C84.5235 92.037 77.6775 82.1081 69.2098 73.7774C68.6815 73.2589 67.9065 72.9026 67.3418 72.4709C63.6414 69.6105 60.4902 70.9981 58.4195 74.8874C52.8183 85.4086 51.062 97.728 48.3635 109.211C47.1932 114.191 47.1518 118.833 42.8018 122.423C42.7363 122.484 42.6699 122.544 42.6029 122.603C39.3164 125.505 34.9834 125.225 31.3792 123.097C26.1009 119.98 24.2844 113.124 26.5302 107.577C28.244 103.335 31.7434 100.166 34.5024 96.6211C42.6975 86.0916 50.69 74.2395 52.0358 60.6082C52.2602 58.3352 51.6197 56.9151 51.2152 54.8167C49.1578 44.1442 39.6772 36.6686 30.3252 32.291L24.185 29.3892C23.5028 29.0697 22.6097 29.1272 22.2718 28.7479C21.688 27.0791 23.9955 26.8282 24.9655 26.244C29.46 23.5372 32.4227 19.3937 33.0283 14.1209C33.1428 13.1234 33.6035 9.51137 34.4804 9.22129C34.8555 9.77971 35.648 11.4084 35.9992 12.0647L39.2285 18.082C42.3815 24.1935 45.6459 30.2469 49.0199 36.2391C49.4227 36.953 49.9002 37.5944 50.2958 38.291C52.3169 41.8495 55.0684 45.9936 59.281 47.1632C61.0605 46.4977 62.6465 45.4 63.8962 43.9689C67.9363 39.4227 71.2974 31.4605 73.7613 25.9182L81.3709 8.42248C81.7429 7.55776 82.9444 4.38043 83.3938 4.04762Z" fill="#FCB010"/>
<path d="M58.5451 25.6554C66.9714 25.1551 69.3996 42.925 60.0271 44.3668C58.7669 44.3466 58.3509 44.3926 57.2213 43.7455C55.091 42.5251 53.615 40.0145 53.0771 37.682C52.4549 34.9835 52.5976 31.1901 54.1675 28.7963C55.5935 26.6218 56.1756 26.269 58.5451 25.6554Z" fill="#FCB010"/>
</svg>
