<svg xmlns="http://www.w3.org/2000/svg" viewBox="0 0 33 33" role="img"><path fill="#ffffff" d="M0,0 h33v33H0z" shape-rendering="crispEdges"></path><path fill="#0d0d0d" d="M2 2h7v1H2zM11 2h2v1H11zM18 2h1v1H18zM20 2h1v1H20zM24,2 h7v1H24zM2 3h1v1H2zM8 3h1v1H8zM10 3h2v1H10zM13 3h3v1H13zM17 3h1v1H17zM19 3h1v1H19zM22 3h1v1H22zM24 3h1v1H24zM30,3 h1v1H30zM2 4h1v1H2zM4 4h3v1H4zM8 4h1v1H8zM10 4h2v1H10zM14 4h2v1H14zM17 4h2v1H17zM21 4h1v1H21zM24 4h1v1H24zM26 4h3v1H26zM30,4 h1v1H30zM2 5h1v1H2zM4 5h3v1H4zM8 5h1v1H8zM11 5h2v1H11zM14 5h1v1H14zM17 5h4v1H17zM22 5h1v1H22zM24 5h1v1H24zM26 5h3v1H26zM30,5 h1v1H30zM2 6h1v1H2zM4 6h3v1H4zM8 6h1v1H8zM11 6h2v1H11zM14 6h5v1H14zM21 6h1v1H21zM24 6h1v1H24zM26 6h3v1H26zM30,6 h1v1H30zM2 7h1v1H2zM8 7h1v1H8zM12 7h4v1H12zM18 7h5v1H18zM24 7h1v1H24zM30,7 h1v1H30zM2 8h7v1H2zM10 8h1v1H10zM12 8h1v1H12zM14 8h1v1H14zM16 8h1v1H16zM18 8h1v1H18zM20 8h1v1H20zM22 8h1v1H22zM24,8 h7v1H24zM13 9h4v1H13zM3 10h3v1H3zM7 10h2v1H7zM12 10h1v1H12zM17 10h1v1H17zM20 10h3v1H20zM28 10h2v1H28zM2 11h1v1H2zM4 11h3v1H4zM13 11h1v1H13zM16 11h2v1H16zM19 11h8v1H19zM28 11h1v1H28zM30,11 h1v1H30zM3 12h3v1H3zM8 12h1v1H8zM10 12h2v1H10zM14 12h2v1H14zM18 12h1v1H18zM20 12h1v1H20zM24 12h6v1H24zM2 13h1v1H2zM4 13h2v1H4zM7 13h1v1H7zM10 13h1v1H10zM14 13h4v1H14zM21 13h2v1H21zM27 13h1v1H27zM30,13 h1v1H30zM2 14h2v1H2zM6 14h5v1H6zM13 14h1v1H13zM15 14h1v1H15zM19 14h1v1H19zM22 14h2v1H22zM25 14h1v1H25zM28,14 h3v1H28zM2 15h2v1H2zM6 15h2v1H6zM9 15h1v1H9zM15 15h1v1H15zM18 15h2v1H18zM21 15h1v1H21zM24 15h2v1H24zM27,15 h4v1H27zM3 16h1v1H3zM5 16h7v1H5zM13 16h1v1H13zM15 16h1v1H15zM18 16h1v1H18zM21 16h1v1H21zM23 16h5v1H23zM29,16 h2v1H29zM3 17h1v1H3zM5 17h1v1H5zM7 17h1v1H7zM9 17h1v1H9zM11 17h2v1H11zM15 17h1v1H15zM22 17h2v1H22zM26 17h2v1H26zM30,17 h1v1H30zM2 18h1v1H2zM4 18h1v1H4zM8 18h3v1H8zM14 18h2v1H14zM19 18h1v1H19zM26 18h2v1H26zM4 19h3v1H4zM16 19h1v1H16zM20 19h1v1H20zM22 19h1v1H22zM25 19h1v1H25zM28 19h1v1H28zM2 20h1v1H2zM6 20h4v1H6zM11 20h2v1H11zM14 20h3v1H14zM20 20h1v1H20zM24 20h5v1H24zM6 21h1v1H6zM11 21h3v1H11zM15 21h1v1H15zM17 21h4v1H17zM23 21h3v1H23zM27,21 h4v1H27zM3 22h3v1H3zM8 22h3v1H8zM14 22h1v1H14zM17 22h12v1H17zM10 23h1v1H10zM12 23h2v1H12zM18 23h3v1H18zM22 23h1v1H22zM26 23h2v1H26zM29,23 h2v1H29zM2 24h7v1H2zM12 24h4v1H12zM18 24h1v1H18zM20 24h3v1H20zM24 24h1v1H24zM26 24h1v1H26zM28 24h2v1H28zM2 25h1v1H2zM8 25h1v1H8zM10 25h1v1H10zM13 25h3v1H13zM19 25h1v1H19zM22 25h1v1H22zM26 25h1v1H26zM2 26h1v1H2zM4 26h3v1H4zM8 26h1v1H8zM11 26h1v1H11zM13 26h2v1H13zM16 26h3v1H16zM22 26h7v1H22zM30,26 h1v1H30zM2 27h1v1H2zM4 27h3v1H4zM8 27h1v1H8zM10 27h2v1H10zM14 27h1v1H14zM19 27h1v1H19zM21 27h1v1H21zM26 27h1v1H26zM28 27h2v1H28zM2 28h1v1H2zM4 28h3v1H4zM8 28h1v1H8zM10 28h2v1H10zM13 28h1v1H13zM16 28h1v1H16zM19 28h2v1H19zM22 28h1v1H22zM25 28h1v1H25zM28 28h1v1H28zM30,28 h1v1H30zM2 29h1v1H2zM8 29h1v1H8zM10 29h1v1H10zM12 29h1v1H12zM15 29h3v1H15zM22 29h1v1H22zM24 29h1v1H24zM26 29h2v1H26zM29 29h1v1H29zM2 30h7v1H2zM12 30h1v1H12zM14 30h3v1H14zM20 30h6v1H20zM29 30h1v1H29z" shape-rendering="crispEdges"></path></svg>
