<svg width="5165" height="707" viewBox="0 0 5165 707" fill="none" xmlns="http://www.w3.org/2000/svg">
<path d="M4795.54 15.5C4906.3 15.5 4995.43 46.5298 5062.88 108.632C5130.33 170.739 5164.04 253.212 5164.04 356C5164.04 457.458 5129.99 538.932 5061.87 600.371L5061.87 600.373C4993.76 661.137 4904.97 691.5 4795.54 691.5H4528.04V15.5H4795.54ZM4714.04 525.5H4795.54C4849.44 525.5 4892.31 510.197 4924.19 479.639C4956.75 448.413 4973.04 407.217 4973.04 356C4973.04 305.452 4956.75 264.588 4924.19 233.36L4924.19 233.357C4892.3 202.134 4849.44 186.5 4795.54 186.5H4714.04V525.5Z" stroke="black"/>
<path d="M4094.53 0.5C4131.96 0.5 4165.73 11.1955 4195.81 32.585C4226.58 53.3229 4247.98 83.4237 4260.01 122.854L4434.01 690.854L4434.21 691.5H4244.15L4244.05 691.131L4213.15 577.5H3976.91L3945.01 691.135L3944.91 691.5H3754.86L3755.05 690.854L3929.05 122.854C3940.89 84.0432 3961.49 54.2702 3990.84 33.5674L3992.25 32.5879C4023 11.1974 4057.1 0.5 4094.53 0.5ZM4095.53 167.5C4094.06 167.5 4092.69 168.228 4091.42 169.812C4090.15 171.407 4089 173.838 4088.01 177.144L4023.19 411.5H4166.88L4103.05 177.132V177.131C4102.06 173.832 4100.91 171.405 4099.64 169.812C4098.37 168.228 4097.01 167.5 4095.53 167.5Z" stroke="black"/>
<path d="M3332.65 15.5C3443.41 15.5 3532.54 46.5298 3599.99 108.632C3667.44 170.739 3701.15 253.212 3701.15 356C3701.15 457.458 3667.1 538.932 3598.98 600.371L3598.98 600.373C3530.87 661.137 3442.08 691.5 3332.65 691.5H3065.15V15.5H3332.65ZM3251.15 525.5H3332.65C3386.55 525.5 3429.42 510.197 3461.3 479.639C3493.86 448.413 3510.15 407.217 3510.15 356C3510.15 305.452 3493.86 264.588 3461.3 233.36L3461.3 233.357C3429.41 202.134 3386.55 186.5 3332.65 186.5H3251.15V525.5Z" stroke="black"/>
<path d="M2906.42 15.5V691.5H2720.42V15.5H2906.42Z" stroke="black"/>
<path d="M2292.98 15.5C2376.39 15.5 2444.17 34.8509 2496.28 73.5967C2549.09 112.368 2575.48 167.86 2575.48 240C2575.48 284.759 2563.79 324.193 2540.4 358.283L2540.39 358.287C2517.2 391.426 2486.11 414.379 2447.15 427.146C2462.84 437.159 2476.59 451.352 2488.39 469.712L2489.59 471.428C2502 489.401 2516.28 515.19 2532.43 548.781L2601.43 690.781L2601.78 691.5H2399.67L2399.54 691.223L2336.54 564.223V564.222C2324.56 540.943 2310.62 524.7 2294.73 515.432L2294.72 515.427C2279.5 506.162 2257.28 501.5 2227.98 501.5H2194.48L2193.48 691.003L2193.48 691.5H2009.48V15.5H2292.98ZM2194.49 336.5H2292.98C2320.23 336.5 2342.11 329.524 2358.66 315.617L2358.67 315.611C2375.88 301.714 2384.48 282.862 2384.48 259C2384.48 234.458 2376.2 216.293 2359.69 204.406L2359.68 204.4C2343.8 192.485 2322.25 186.5 2294.98 186.5H2195.48L2194.49 336.5Z" stroke="black"/>
<path d="M1575.98 0.5C1613.41 0.5 1647.17 11.1955 1677.26 32.585C1708.03 53.3229 1729.43 83.4237 1741.46 122.854L1915.46 690.854L1915.65 691.5H1725.59L1725.49 691.131L1694.59 577.5H1458.36L1426.46 691.135L1426.36 691.5H1236.3L1236.5 690.854L1410.5 122.854C1422.34 84.0432 1442.93 54.2702 1472.29 33.5674L1473.69 32.5879C1504.44 11.1974 1538.54 0.5 1575.98 0.5ZM1576.98 167.5C1575.5 167.5 1574.13 168.228 1572.87 169.812C1571.59 171.407 1570.45 173.838 1569.46 177.144L1504.63 411.5H1648.32L1584.49 177.132V177.131C1583.5 173.832 1582.36 171.405 1581.09 169.812C1579.82 168.228 1578.45 167.5 1576.98 167.5Z" stroke="black"/>
<path d="M914.234 15.5V520.5H1212.23V691.5H888.734C835.328 691.5 795.181 678.566 768.387 652.609C741.59 626.65 728.234 587.748 728.234 536V15.5H914.234Z" stroke="black"/>
<path d="M357 1.5C418.423 1.5 475.512 17.1909 528.256 48.5703H528.255C581.673 79.9538 620.413 122.697 644.457 176.797L644.643 177.215L644.243 177.437L493.243 261.437L492.808 261.679L492.563 261.244C477.262 233.969 458.649 213.369 436.731 199.422L436.723 199.416C414.831 184.822 385.605 177.5 349 177.5C301.798 177.5 263.605 193.78 234.375 226.329C205.805 258.886 191.5 301.428 191.5 354C191.5 406.572 205.806 449.113 234.376 481.67C262.937 514.216 301.127 530.5 349 530.5C382.931 530.5 411.84 523.515 435.748 509.568C459.654 495.623 478.591 474.701 492.553 446.776L492.786 446.309L493.243 446.563L644.243 530.563L644.643 530.785L644.457 531.203C620.413 585.302 581.673 628.045 528.255 659.429L528.256 659.43C475.512 690.809 418.423 706.5 357 706.5C256.208 706.5 171.413 672.452 102.648 604.355L102.646 604.354C34.55 536.257 0.5 452.795 0.5 354C0.5 255.205 34.55 171.743 102.646 103.646L102.648 103.645C171.413 35.5478 256.208 1.5 357 1.5Z" stroke="black"/>
</svg>
